<?xml version="1.0" encoding="utf-8"?>
<!-- Generator: Adobe Illustrator 16.0.0, SVG Export Plug-In . SVG Version: 6.00 Build 0)  -->
<!DOCTYPE svg PUBLIC "-//W3C//DTD SVG 1.1//EN" "http://www.w3.org/Graphics/SVG/1.1/DTD/svg11.dtd">
<svg version="1.1" xmlns="http://www.w3.org/2000/svg" xmlns:xlink="http://www.w3.org/1999/xlink" x="0px" y="0px" width="600px"
	 height="600px" viewBox="0 0 600 600" enable-background="new 0 0 600 600" xml:space="preserve">
<g id="Layer_1" display="none">
	<g id="WdcWWi.tif" display="inline">
		
			<image overflow="visible" width="2163" height="2119" id="Layer_0_1_" xlink:href="DF5FEC4618C34B8B.png"  transform="matrix(0.0026 -0.1623 0.1623 0.0026 125.3315 472.7744)">
		</image>
	</g>
</g>
<g id="Layer_4">
	<polygon points="423.646,270.441 375.576,387.563 371.923,289.235 	"/>
</g>
<g id="Layer_5">
	<polygon points="371.923,289.235 418.56,138.177 215.352,242.206 314.228,243.216 	"/>
</g>
<g id="Layer_9">
	<defs>
		<filter id="Adobe_OpacityMaskFilter" filterUnits="userSpaceOnUse" x="156.223" y="227.994" width="228.773" height="228.772">
			<feFlood  style="flood-color:white;flood-opacity:1" result="back"/>
			<feBlend  in="SourceGraphic" in2="back" mode="normal"/>
		</filter>
	</defs>
	<mask maskUnits="userSpaceOnUse" x="156.223" y="227.994" width="228.773" height="228.772" id="SVGID_1_">
		<g filter="url(#Adobe_OpacityMaskFilter)">
			<g>
				<g>
					<circle cx="270.61" cy="342.38" r="86.333"/>
				</g>
			</g>
		</g>
	</mask>
	<g mask="url(#SVGID_1_)">
		<g>
			<circle cx="270.61" cy="342.38" r="114.386"/>
		</g>
	</g>
	<g id="Layer_3">
	</g>
</g>
<g id="Layer_7">
	<circle cx="270.61" cy="342.381" r="43.527"/>
</g>
<g id="Layer_10">
	<circle cx="269.239" cy="429.531" r="18.667"/>
	<circle cx="331.328" cy="403.17" r="18.667"/>
	<circle cx="359.599" cy="343.781" r="18.667"/>
	<circle cx="334.182" cy="281.869" r="18.667"/>
	<circle cx="273.308" cy="255.573" r="18.667"/>
	<circle cx="209.251" cy="279.904" r="18.667"/>
	<circle cx="182.953" cy="341.002" r="18.667"/>
	<circle cx="208.978" cy="403.247" r="18.667"/>
</g>
</svg>
